<svg width="44" height="44" viewBox="0 0 44 44" fill="none" xmlns="http://www.w3.org/2000/svg">
<path d="M21.9601 42.76C16.4224 42.76 11.1114 40.5602 7.19569 36.6444C3.27993 32.7286 1.08008 27.4177 1.08008 21.88C1.08008 16.3423 3.27993 11.0314 7.19569 7.11561C11.1114 3.19985 16.4224 1 21.9601 1C27.4978 1 32.8087 3.19985 36.7245 7.11561C40.6402 11.0314 42.8401 16.3423 42.8401 21.88C42.8401 24.622 42.3 27.3372 41.2507 29.8704C40.2014 32.4037 38.6633 34.7055 36.7245 36.6444C34.7856 38.5833 32.4838 40.1213 29.9505 41.1706C27.4172 42.2199 24.7021 42.76 21.9601 42.76Z" stroke="white" stroke-miterlimit="10"/>
<path d="M19.1376 33.0706H23.6318V21.7812H26.7688L27.1103 18.006H23.6318V15.8578C23.6318 14.959 23.8026 14.6174 24.6655 14.6174H27.1103V10.6985H23.9824C20.6297 10.6985 19.1196 12.1726 19.1196 14.9949V18.015H16.7737V21.8351H19.1196L19.1376 33.0706Z" fill="white"/>
</svg>
