<svg width="44" height="44" viewBox="0 0 44 44" fill="none" xmlns="http://www.w3.org/2000/svg">
<path d="M22.0354 42.76C16.4981 42.7576 11.1883 40.5563 7.27367 36.6399C3.35901 32.7236 1.15991 27.4129 1.15991 21.8755V21.8755C1.15991 16.339 3.35929 11.0292 7.27421 7.1143C11.1891 3.19938 16.4989 1 22.0354 1C24.7776 0.998821 27.4931 1.53791 30.0269 2.58648C32.5607 3.63504 34.863 5.17253 36.8024 7.11112C38.7419 9.0497 40.2804 11.3514 41.33 13.8847C42.3797 16.418 42.9199 19.1334 42.9199 21.8755V21.8755C42.9199 27.4144 40.7196 32.7265 36.803 36.6431C32.8864 40.5597 27.5743 42.76 22.0354 42.76V42.76Z" stroke="white" stroke-miterlimit="10"/>
<path d="M22.0351 13.5544C24.731 13.5544 25.0725 13.5544 26.1419 13.6173C26.7866 13.623 27.4253 13.7416 28.0291 13.9678C28.467 14.1297 28.8631 14.3876 29.1883 14.7226C29.5244 15.0522 29.7851 15.4508 29.9522 15.8908C30.1739 16.4958 30.2923 17.1338 30.3026 17.778C30.3026 18.8474 30.3565 19.1709 30.3565 21.8758C30.3565 24.5807 30.3565 24.9132 30.3026 25.9826C30.2923 26.6269 30.1739 27.2648 29.9522 27.8698C29.7786 28.3039 29.5186 28.6982 29.1881 29.0288C28.8575 29.3593 28.4632 29.6193 28.0291 29.7929C27.4241 30.0146 26.7861 30.1331 26.1419 30.1433C25.0725 30.1433 24.749 30.1973 22.0351 30.1973C19.3212 30.1973 19.0067 30.1973 17.9373 30.1433C17.293 30.1331 16.6551 30.0146 16.0501 29.7929C15.616 29.6193 15.2217 29.3593 14.8911 29.0288C14.5606 28.6982 14.3006 28.3039 14.127 27.8698C13.9053 27.2648 13.7868 26.6269 13.7766 25.9826C13.7316 24.9132 13.7226 24.5897 13.7226 21.8758C13.7226 19.1619 13.7226 18.8474 13.7766 17.778C13.7868 17.1338 13.9053 16.4958 14.127 15.8908C14.2941 15.4508 14.5547 15.0522 14.8909 14.7226C15.2161 14.3876 15.6122 14.1297 16.0501 13.9678C16.6539 13.7416 17.2926 13.623 17.9373 13.6173C19.0067 13.6173 19.3302 13.5544 22.0351 13.5544ZM22.0351 11.7571C19.2852 11.7571 18.9348 11.7571 17.8564 11.82C17.0149 11.8335 16.182 11.9915 15.3941 12.2873C14.7205 12.5521 14.1087 12.9529 13.597 13.4646C13.0852 13.9764 12.6844 14.5882 12.4196 15.2618C12.123 16.0495 11.9649 16.8825 11.9523 17.7241C11.8984 18.8025 11.8894 19.1529 11.8894 21.9028C11.8894 24.6526 11.8894 25.0121 11.9523 26.0905C11.9658 26.9319 12.1239 27.7648 12.4196 28.5527C12.6844 29.2263 13.0852 29.8381 13.597 30.3499C14.1087 30.8617 14.7205 31.2625 15.3941 31.5273C16.1832 31.8186 17.0154 31.9766 17.8564 31.9946C18.9348 32.0485 19.2852 32.0575 22.0351 32.0575C24.7849 32.0575 25.1444 32.0575 26.2228 31.9946C27.0638 31.9766 27.8959 31.8186 28.6851 31.5273C29.3587 31.2625 29.9704 30.8617 30.4822 30.3499C30.994 29.8381 31.3948 29.2263 31.6596 28.5527C31.9553 27.7648 32.1134 26.9319 32.1269 26.0905C32.1808 25.0121 32.1898 24.6616 32.1898 21.9028C32.1898 19.1439 32.1898 18.8025 32.1269 17.7241C32.1143 16.8825 31.9562 16.0495 31.6596 15.2618C31.3948 14.5882 30.994 13.9764 30.4822 13.4646C29.9704 12.9529 29.3587 12.5521 28.6851 12.2873C27.8972 11.9915 27.0643 11.8335 26.2228 11.82C25.1444 11.7661 24.7939 11.7571 22.0351 11.7571Z" fill="white"/>
<path d="M22.0351 16.6637C21.0043 16.6637 19.9966 16.9694 19.1394 17.5421C18.2823 18.1148 17.6142 18.9288 17.2198 19.8812C16.8253 20.8336 16.722 21.8816 16.9231 22.8927C17.1243 23.9037 17.6207 24.8324 18.3496 25.5614C19.0785 26.2903 20.0072 26.7867 21.0183 26.9878C22.0294 27.1889 23.0773 27.0857 24.0297 26.6912C24.9821 26.2967 25.7962 25.6287 26.3689 24.7715C26.9416 23.9144 27.2473 22.9067 27.2473 21.8758C27.2473 20.4935 26.6981 19.1678 25.7207 18.1903C24.7432 17.2128 23.4175 16.6637 22.0351 16.6637ZM22.0351 25.2637C21.3651 25.2637 20.7101 25.065 20.1529 24.6928C19.5958 24.3205 19.1616 23.7914 18.9051 23.1723C18.6487 22.5533 18.5816 21.8721 18.7123 21.2149C18.8431 20.5577 19.1657 19.954 19.6395 19.4802C20.1133 19.0064 20.717 18.6838 21.3742 18.553C22.0314 18.4223 22.7126 18.4894 23.3316 18.7458C23.9507 19.0023 24.4798 19.4365 24.8521 19.9936C25.2243 20.5508 25.423 21.2058 25.423 21.8758C25.423 22.3207 25.3354 22.7613 25.1651 23.1723C24.9949 23.5834 24.7453 23.9568 24.4307 24.2714C24.1161 24.586 23.7427 24.8356 23.3316 25.0058C22.9206 25.1761 22.48 25.2637 22.0351 25.2637Z" fill="white"/>
<path d="M28.6313 16.4658C28.6313 16.7083 28.5591 16.9453 28.424 17.1466C28.2889 17.348 28.097 17.5046 27.8726 17.5966C27.6483 17.6885 27.4016 17.7116 27.1641 17.663C26.9265 17.6144 26.7088 17.4962 26.5386 17.3235C26.3684 17.1507 26.2535 16.9313 26.2083 16.693C26.1632 16.4548 26.19 16.2085 26.2853 15.9855C26.3805 15.7626 26.54 15.5729 26.7433 15.4408C26.9467 15.3087 27.1847 15.2401 27.4271 15.2437C27.7513 15.2437 28.0621 15.3724 28.2913 15.6016C28.5205 15.8308 28.6493 16.1417 28.6493 16.4658" fill="white"/>
</svg>
