<svg width="44" height="44" viewBox="0 0 44 44" fill="none" xmlns="http://www.w3.org/2000/svg">
<path d="M22.1155 42.76C16.5781 42.7576 11.2684 40.5563 7.35374 36.6399C3.43908 32.7236 1.23999 27.4129 1.23999 21.8755V21.8755C1.23999 16.339 3.43937 11.0292 7.35429 7.1143C11.2692 3.19938 16.579 1 22.1155 1C24.8577 0.998821 27.5732 1.53791 30.107 2.58648C32.6407 3.63504 34.9431 5.17253 36.8825 7.11112C38.8219 9.0497 40.3604 11.3514 41.4101 13.8847C42.4597 16.418 43 19.1334 43 21.8755V21.8755C43 27.4144 40.7997 32.7265 36.8831 36.6431C32.9665 40.5597 27.6544 42.76 22.1155 42.76V42.76Z" stroke="white" stroke-miterlimit="10"/>
<g clip-path="url(#clip0_1_32)">
<path d="M19.4634 25.5811L22.2529 27.6707L26.8137 31.0458C27.6501 31.5168 28.2394 31.2688 28.465 30.2682L31.4587 16.0933L31.4595 16.0924C31.7248 14.843 31.0124 14.3544 30.1974 14.6609L12.6008 21.4686C11.3999 21.9396 11.4181 22.6161 12.3967 22.9226L16.8954 24.3366L27.3451 17.7294C27.8369 17.4003 28.284 17.5824 27.9162 17.9115L19.4634 25.5811Z" fill="white"/>
</g>
<defs>
<clipPath id="clip0_1_32">
<rect width="19.836" height="19.836" fill="white" transform="translate(11.6799 11.4401)"/>
</clipPath>
</defs>
</svg>
