<svg width="44" height="44" viewBox="0 0 44 44" fill="none" xmlns="http://www.w3.org/2000/svg">
<path d="M21.88 42.76C16.3414 42.7576 11.0306 40.5563 7.11506 36.6399C3.19956 32.7236 0.999999 27.4129 1 21.8755V21.8755C1 16.339 3.19985 11.0292 7.11561 7.11429C11.0314 3.19938 16.3423 1 21.88 1C27.4177 1 32.7286 3.19938 36.6444 7.11429C40.5601 11.0292 42.76 16.339 42.76 21.8755V21.8755C42.76 27.4129 40.5604 32.7236 36.6449 36.6399C32.7294 40.5563 27.4185 42.7576 21.88 42.76V42.76Z" stroke="white" stroke-miterlimit="10"/>
<path d="M14.3633 26.7273C15.715 27.6151 17.2779 28.1043 18.8816 28.1417C20.4853 28.179 22.0681 27.7631 23.4576 26.9392C24.847 26.1153 25.9898 24.9151 26.7612 23.4694C27.5325 22.0238 27.9029 20.3882 27.832 18.741C28.4444 18.2929 28.9743 17.7363 29.3969 17.0973C28.8355 17.3565 28.2385 17.5248 27.627 17.5961C28.2749 17.2039 28.7609 16.5819 28.9937 15.8471C28.389 16.2153 27.7283 16.4765 27.0393 16.6197C26.5768 16.1105 25.9635 15.7726 25.2949 15.6586C24.6263 15.5446 23.9397 15.6608 23.342 15.9892C22.7443 16.3177 22.2689 16.8399 21.9896 17.4747C21.7104 18.1095 21.6431 18.8214 21.7981 19.4996C20.5737 19.4385 19.3756 19.1129 18.2818 18.5441C17.188 17.9753 16.223 17.176 15.4498 16.1983C15.0579 16.8941 14.9387 17.7172 15.1164 18.5002C15.2942 19.2831 15.7555 19.967 16.4065 20.4127C15.9273 20.3929 15.4593 20.2582 15.0398 20.0194C15.0317 20.7559 15.2736 21.4723 15.7239 22.0453C16.1741 22.6183 16.8045 23.0122 17.5067 23.1591C17.0606 23.2805 16.5941 23.2997 16.14 23.2153C16.3347 23.8436 16.7164 24.3932 17.2314 24.7864C17.7464 25.1797 18.3686 25.3967 19.01 25.4068C18.362 25.9372 17.6163 26.3277 16.8178 26.5546C16.0193 26.7815 15.1844 26.8402 14.3633 26.7273Z" fill="white"/>
</svg>
